<?xml version="1.0" encoding="UTF-8" standalone="no"?>
<!-- Created with Inkscape (http://www.inkscape.org/) -->

<svg
   width="141.53406mm"
   height="31.401661mm"
   viewBox="0 0 141.53406 31.401661"
   version="1.1"
   id="svg1"
   xml:space="preserve"
   xmlns="http://www.w3.org/2000/svg"
   xmlns:svg="http://www.w3.org/2000/svg"><defs
     id="defs1" /><g
     id="layer1"
     transform="translate(-37.279346,-100.09607)"><rect
       style="display:none;fill:#000000;stroke-width:2;paint-order:fill markers stroke"
       id="rect1"
       width="341.35391"
       height="230.1893"
       x="-48.283611"
       y="14.597371" /><g
       id="g14"><ellipse
         style="display:none;fill:#1a1a1a;fill-opacity:1;stroke-width:2.02371;paint-order:fill markers stroke"
         id="path14"
         cx="63.123451"
         cy="129.82304"
         rx="7.0958495"
         ry="2.2262108" /><path
         style="fill:#ffffff;fill-opacity:1;stroke-width:2;paint-order:fill markers stroke"
         d="m 38.801788,107.97019 c 0,0 -0.781796,7.52994 -1.028679,11.56236 -0.246882,4.03242 -0.493765,10.03991 -0.493765,10.03991 0,0 0.164587,0.69951 0.740648,0.69951 0.576062,0 4.443897,-0.0823 4.443897,-0.0823 0,0 0.617207,0 0.617207,-0.53491 0,-0.53492 0,-6.46011 0,-6.46011 0,0 1.851622,-0.65835 3.785539,-0.90524 1.933919,-0.24688 3.456363,-0.24688 3.456363,-0.24688 0,0 0.576061,0.12344 0.617209,-0.61721 0.04115,-0.74065 0.04115,-3.90898 0.04115,-3.90898 0,0 -0.04115,-0.6995 -0.781796,-0.61721 -0.740649,0.0823 -6.912727,0.28803 -6.912727,0.28803 l 0.370327,-3.78554 8.558612,-1.02868 c 0,0 0.617207,-0.12344 0.658355,-0.65835 0.04115,-0.53492 0.246882,-4.03243 0.246882,-4.03243 0,0 -0.08229,-0.57606 -0.740648,-0.6172 -0.658355,-0.0412 -13.043656,0.49376 -13.043656,0.49376 0,0 -0.370324,-0.0411 -0.534914,0.41147 z"
         id="path3" /><path
         style="fill:#ffffff;fill-opacity:1;stroke-width:2;paint-order:fill markers stroke"
         d="m 53.958344,109.52151 0.06056,-1.24147 c 0,0 0.393636,-1.69566 8.841657,-1.39286 8.448025,0.30279 8.902219,1.99845 8.902219,1.99845 l -0.03028,1.27175 c 0,0 -0.635873,0.87811 -4.239152,1.18091 -3.603278,0.30279 -3.845515,0.0908 -3.845515,0.0908 l -0.514754,16.2299 c 0,0 0.93867,-0.0303 2.089295,0.33308 1.150628,0.36335 1.332304,0.81755 1.332304,0.81755 v 0.93867 c 0,0 -0.999228,0.90838 -4.420827,0.78727 -3.421603,-0.12112 -4.36027,-1.05979 -4.36027,-1.05979 v -0.96895 c 0,0 0.423915,-0.60559 1.786498,-0.72671 1.362586,-0.12112 1.81678,-0.18168 1.81678,-0.18168 l 0.605592,-16.16934 c 0,0 -2.240693,-0.15139 -4.451109,-0.51475 -2.210414,-0.36336 -3.572997,-1.39286 -3.572997,-1.39286 z"
         id="path4" /><path
         d="m 80.089685,107.34125 c -3.209645,0.1514 -7.47913,1.12035 -7.47913,1.12035 0,0 -0.605759,0.0606 -0.696598,0.96893 -0.09084,0.90839 -1.30173,20.46903 -1.30173,20.46903 0,0 -4.2e-5,0.57527 0.66611,0.66611 0.666152,0.0908 4.844665,0.061 4.844665,0.061 0,0 5.783524,0.30273 9.205123,-6.51019 3.421602,-6.81292 1.120207,-12.14251 0.726571,-13.2023 -0.393637,-1.05979 -2.755367,-3.72431 -5.965011,-3.57291 z m -0.540535,5.46478 c 0.950416,-0.0425 2.158727,0.55532 1.903243,5.0121 -0.121458,2.11876 -1.054006,4.30737 -2.18488,5.44515 -1.406495,1.41508 -3.05356,1.51928 -3.05356,1.51928 l 0.817521,-11.53676 c 0,0 1.362691,-0.30263 2.33164,-0.42375 0.06056,-0.008 0.122674,-0.0132 0.186036,-0.016 z"
         style="display:inline;fill:#ffffff;stroke-width:2;paint-order:fill markers stroke"
         id="path18" /><path
         style="fill:#ffffff;fill-opacity:1;stroke-width:2;paint-order:fill markers stroke"
         d="m 92.679884,108.75577 c 0,0 -0.548039,6.21113 -0.82206,9.68206 -0.274021,3.47093 -0.517597,11.75244 -0.517597,11.75244 0,0 0.03045,0.57849 0.66983,0.57849 0.639381,0 14.157733,-0.54804 14.157733,-0.54804 0,0 0.60894,0.0609 0.63938,-0.57849 0.0305,-0.63938 0.0609,-4.38433 0.0609,-4.38433 0,0 0.0304,-0.57849 -0.85251,-0.57849 -0.88296,0 -8.829557,0.12179 -8.829557,0.12179 l 0.213127,-2.8011 7.33767,-0.88296 c 0,0 0.54803,0.0609 0.60893,-0.60893 0.0609,-0.66983 0,-3.53182 0,-3.53182 0,0 -0.0913,-0.70028 -0.9134,-0.66983 -0.82206,0.0304 -6.789627,0.33491 -6.789627,0.33491 l 0.213127,-2.77065 9.3776,-0.9134 c 0,0 0.51759,-0.0609 0.54804,-0.57849 0.0305,-0.5176 0.12178,-4.20165 0.12178,-4.20165 0,0 0,-0.63939 -0.76116,-0.63939 -0.76117,0 -13.883718,0.5176 -13.883718,0.5176 0,0 -0.487146,0.0913 -0.578488,0.70028 z"
         id="path7" /><path
         style="fill:#ffffff;fill-opacity:1;stroke-width:2;paint-order:fill markers stroke"
         d="m 113.29233,108.23817 -1.24832,22.16523 c 0,0 0.0609,0.60893 0.60894,0.63938 0.54804,0.0305 13.0312,-0.5176 13.0312,-0.5176 0,0 0.57849,-0.0913 0.57849,-0.51759 0,-0.42625 0.15224,-4.99327 0.15224,-4.99327 0,0 -0.0305,-0.66982 -0.57849,-0.66982 -0.54804,0 -7.73347,-0.0305 -7.73347,-0.0305 l 0.9134,-15.80186 c 0,0 0,-0.66983 -0.60894,-0.66983 -0.60893,0 -4.47567,-0.18268 -4.47567,-0.18268 0,0 -0.51759,0.0913 -0.63938,0.57849 z"
         id="path8" /><path
         d="m 139.27574,107.54692 c -5.9117,-0.007 -7.85618,8.01 -8.14163,9.55136 0,0 -3.10554,13.24444 6.33295,14.18828 9.43849,0.94385 9.40821,-12.54442 9.40821,-13.64051 0,-1.09608 0.51753,-8.7686 -6.36343,-9.98647 -0.43006,-0.0761 -0.84199,-0.11217 -1.2361,-0.11266 z m 0.66507,4.64158 c 1.01116,0.02 1.6802,3.05904 1.14929,7.04091 -0.54805,4.11031 -0.88302,6.57655 -3.01429,6.72879 -2.13127,0.15223 -1.43058,-6.21116 -1.18701,-7.82484 0.9743,-5.17594 1.88767,-5.75443 2.95331,-5.93711 0.0333,-0.006 0.0661,-0.008 0.0987,-0.008 z"
         style="fill:#ffffff;stroke-width:2;paint-order:fill markers stroke"
         id="path17" /><path
         style="fill:#ffffff;fill-opacity:1;stroke-width:2;paint-order:fill markers stroke"
         d="m 151.99014,117.09817 c 0,0 2.8011,-9.74295 10.10832,-8.98179 7.30722,0.76117 6.27203,7.00275 6.0589,8.0075 -0.21313,1.00474 -0.33491,1.55278 -0.33491,1.55278 0,0 -0.0609,0.39581 -0.54805,0.4567 -0.48714,0.0609 -4.87147,-0.0304 -4.87147,-0.0304 0,0 -0.76117,-0.33492 -0.57849,-0.9743 0.18268,-0.63938 1.46144,-4.20165 0.21312,-4.32344 -1.24831,-0.12179 -3.13601,1.55279 -3.98852,6.33292 -0.85251,4.78014 0.27402,7.39856 1.82681,7.45946 1.55278,0.0609 2.67931,-1.73547 3.41003,-2.77066 0.73072,-1.03519 1.00474,-1.58323 1.00474,-1.58323 0,0 0.48715,-0.4567 0.88296,-0.0913 0.39581,0.36536 2.16172,2.28351 2.16172,2.28351 0,0 0.27402,0.30447 -0.0913,0.9134 -0.36536,0.60894 -3.16646,6.9723 -9.62117,6.0589 -6.45471,-0.9134 -7.12454,-9.3776 -5.63265,-14.30997 z"
         id="path11" /><path
         style="fill:#ffffff;fill-opacity:1;stroke-width:2;paint-order:fill markers stroke"
         d="m 173.8509,114.38841 1.12653,0.39581 c 0,0 0.36536,0.39581 1.06564,-0.30447 0.70027,-0.70027 3.62316,-4.56701 2.52708,-6.82007 -1.09609,-2.25306 -4.20007,-2.18225 -5.29774,-0.60893 -0.9134,1.30921 -0.63938,2.67931 0.0914,3.7145 0.73266,1.03785 1.46145,1.00474 1.46145,1.00474 l -1.37011,1.79636 c 0,0 -0.21312,0.57849 0.39581,0.82206 z"
         id="path12" /><path
         style="fill:#ffffff;fill-opacity:1;stroke-width:2;paint-order:fill markers stroke"
         d="m 96.915128,104.68156 2.602579,-3.92453 c 0,0 0.123931,-0.57835 0.991463,-0.57835 0.86752,0 4.75074,-0.0826 4.75074,-0.0826 0,0 1.36325,0.0413 0.70228,1.11539 -1.40457,1.36326 -4.2137,4.13108 -4.2137,4.13108 0,0 -0.3718,0.3718 -0.86753,0.3718 -0.49573,0 -3.346173,0 -3.346173,0 0,0 -0.908836,0.0413 -0.619659,-1.03277 z"
         id="path13" /></g></g></svg>
